<svg width="62" height="73" viewBox="0 0 62 73" fill="none" xmlns="http://www.w3.org/2000/svg">
<path d="M47.6839 44.9125C47.6636 44.9042 47.6432 44.8967 47.6227 44.8897C45.6385 44.1527 44.0576 43.9132 43.8534 43.866C43.7156 43.4202 43.484 42.9979 43.1577 42.6317C41.5812 40.8628 39.6902 39.8889 38.667 39.454V38.1639C40.9018 36.5577 42.4685 34.4506 43.1248 31.2499H44.3771C46.3253 31.2499 47.9104 29.6649 47.9104 27.7167V25.5872C47.9104 24.0055 46.8656 22.6631 45.4274 22.2141V19.1265C45.8546 18.8378 46.1491 18.3844 46.2356 17.8754L47.0079 13.3339L51.7074 11.5499V13.0906C50.8457 13.2159 50.1559 13.9045 50.0527 14.7927L49.4963 19.5906C49.3628 20.7437 50.2636 21.7641 51.4324 21.7641H54.0916C55.2526 21.7641 56.1624 20.7514 56.0277 19.5903L55.4713 14.7927C55.3682 13.9047 54.6784 13.2159 53.8165 13.0906V9.781C53.8165 9.77973 53.8167 9.77861 53.8167 9.77734C53.8165 9.18714 53.4599 8.67048 52.9082 8.46123L47.1376 6.27071C46.5926 6.06371 45.9839 6.33793 45.7771 6.88243C45.5704 7.42707 45.8444 8.03612 46.3889 8.24284L50.4327 9.77776L46.1688 11.3964C46.0138 11.2976 45.8427 11.2192 45.6568 11.1676C35.8805 8.45645 26.3761 8.45673 16.6007 11.1676C16.4148 11.219 16.2435 11.2976 16.0885 11.3964L11.8246 9.77776L28.7853 3.33953C30.2962 2.76578 31.961 2.76564 33.4725 3.33953L41.7733 6.49051C42.3182 6.69765 42.9268 6.42329 43.1337 5.87879C43.3404 5.33415 43.0665 4.72511 42.522 4.51839L34.2211 1.36754C32.2268 0.610559 30.0307 0.610559 28.0366 1.36754L9.34951 8.46109C8.79755 8.67048 8.44093 9.18714 8.44093 9.77734C8.44079 10.3675 8.79727 10.8845 9.34937 11.0942L15.2498 13.3339L16.0223 17.8752C16.1088 18.3843 16.4033 18.8378 16.8305 19.1264V22.2132C15.3934 22.6615 14.3475 24.0045 14.3475 25.5871V27.7166C14.3475 29.6647 15.9324 31.2498 17.8808 31.2498H19.1334C19.7358 34.27 21.1773 36.3504 23.333 37.9736V39.454C22.3096 39.8888 20.4187 40.8629 18.8424 42.6317C18.5161 42.9977 18.2845 43.42 18.1467 43.8658C18.0962 43.8775 16.0119 44.2192 14.3158 44.9125C6.08771 47.9977 0.419678 55.933 0.419678 64.959V67.4188C0.419678 70.3859 2.83365 72.7998 5.80069 72.7998H56.1993C59.1663 72.7998 61.5803 70.3859 61.5803 67.4188V64.959C61.5803 55.9327 55.9121 47.9974 47.6839 44.9125ZM53.3926 15.1778L53.9117 19.6548H51.6124L52.1316 15.1778H53.3926ZM39.1804 42.08C39.9377 42.5314 40.8124 43.1709 41.5827 44.0351C41.954 44.4519 41.9929 45.0623 41.6934 45.5125C41.6931 45.5131 41.6928 45.5137 41.6924 45.5142C41.6897 45.5182 41.6872 45.5221 41.6847 45.5262L37.531 51.7283C37.5309 51.7286 37.5306 51.7289 37.5305 51.7292C37.1729 52.2631 36.4658 52.4144 35.9213 52.074C34.9167 51.4462 33.3778 50.4848 32.7636 50.101L37.5445 45.8711C38.6413 44.9005 39.2208 43.4971 39.1804 42.08ZM35.8516 54.2911C35.5059 54.8326 35.0037 55.6195 34.2744 56.7625L33.5966 54.8041L34.4476 53.6402C34.6782 53.7668 35.0992 54.1258 35.8516 54.2911ZM36.8895 41.2326C37.3042 42.3021 37.0058 43.5313 36.1467 44.2912L31 48.8447L25.8534 44.2912C24.9943 43.5313 24.6958 42.3022 25.1106 41.2328C25.2677 40.7452 25.4423 40.5322 25.4423 40.1799V39.2852C28.8785 40.9988 32.9528 41.1076 36.5575 39.4082V40.1799C36.5575 40.45 36.6424 40.5886 36.8895 41.2326ZM31 51.4863L32.6537 52.5196L31.8838 53.5726H30.1162L29.3462 52.5196L31 51.4863ZM30.3319 55.682H31.6682L32.8273 59.0308C32.5404 59.4805 32.2324 59.9632 31.9004 60.4836C31.4818 61.1453 30.5221 61.1513 30.0977 60.4802C29.7664 59.9611 29.4593 59.4796 29.173 59.0308L30.3319 55.682ZM43.3179 22.0539H42.117C41.4985 22.0539 40.9326 21.5994 40.9326 20.9411V18.7225C41.726 18.8787 42.521 19.0535 43.3179 19.2474V22.0539ZM45.8009 25.5872V27.7167C45.8009 28.5018 45.1621 29.1406 44.3769 29.1406H43.3875C43.4248 28.4151 43.3945 29.364 43.4058 24.1633H44.3726C44.3733 24.1633 44.374 24.1631 44.3748 24.1631C44.3757 24.1631 44.3762 24.1633 44.3771 24.1633C45.1621 24.1633 45.8009 24.8021 45.8009 25.5872ZM44.9001 13.1469L44.1954 17.2902C35.4401 15.0989 26.8878 15.081 18.0622 17.2901L17.3575 13.1469C26.6219 10.6117 35.6353 10.6117 44.9001 13.1469ZM17.8808 29.1407C17.0957 29.1407 16.4568 28.502 16.4568 27.7169V25.5874C16.4568 24.8023 17.0957 24.1634 17.8808 24.1634H17.8852H18.8558C18.8719 29.2366 18.8386 28.3384 18.8787 29.1407H17.8808ZM18.9398 22.0539V19.2473C19.7368 19.0534 20.5317 18.8784 21.3251 18.7224C21.3237 21.0892 21.3282 20.9507 21.3212 21.0425C21.2766 21.6097 20.758 22.0539 20.1409 22.0539C20.119 22.0539 18.86 22.0539 18.9398 22.0539ZM20.9684 28.6501L20.9651 24.0571C22.2932 23.7192 23.3153 22.5901 23.424 21.2085C23.4425 20.974 23.431 21.0639 23.4345 18.3511C28.5815 17.5526 33.6762 17.5526 38.8234 18.3512C38.8269 21.0332 38.8154 20.9749 38.8339 21.208C38.9428 22.5912 39.9667 23.7212 41.2966 24.0579C41.297 30.2418 41.2846 28.3227 41.2973 28.6984C40.9603 41.755 21.2606 41.7919 20.9684 28.6501ZM20.4173 44.0351C21.1875 43.1707 22.0623 42.5313 22.8196 42.0799C22.7793 43.4968 23.3587 44.9005 24.4557 45.8711L29.2367 50.101C28.5912 50.5015 27.7343 51.0356 26.079 52.074C25.5346 52.4143 24.8278 52.2631 24.4701 51.7296L20.3156 45.5262C20.3129 45.5221 20.3102 45.5182 20.3076 45.5141C20.3073 45.5137 20.307 45.5131 20.3067 45.5127C20.0132 45.0717 20.039 44.4597 20.4173 44.0351ZM28.4033 54.8042L27.7255 56.7627C26.9961 55.6195 26.4939 54.8326 26.1483 54.2911C26.8992 54.1261 27.3138 53.7712 27.5524 53.6405L28.4033 54.8042ZM59.4709 67.4188C59.4709 69.2229 58.0034 70.6905 56.1993 70.6905H50.7248V63.4505C50.7248 62.8679 50.2527 62.3958 49.6701 62.3958C49.0875 62.3958 48.6154 62.8679 48.6154 63.4505V70.6905H13.3846V63.4505C13.3846 62.8679 12.9125 62.3958 12.3299 62.3958C11.7473 62.3958 11.2752 62.8679 11.2752 63.4505V70.6905H5.80069C3.99662 70.6905 2.52905 69.2229 2.52905 67.4188V64.959C2.52905 57.1052 7.28963 50.1676 14.2909 47.1937L17.4575 52.215C17.6581 52.5331 18.0005 52.7072 18.3506 52.7072C18.5429 52.7072 18.7376 52.6546 18.9123 52.5445C19.4049 52.2339 19.5526 51.5825 19.2418 51.0897L16.3237 46.4625C17.322 46.1655 18.0067 46.0465 18.2061 46.0028C18.5863 47.0407 18.0825 45.5698 28.3173 61.6114C29.5653 63.5848 32.4387 63.5785 33.6809 61.6148C41.6985 49.0472 43.4308 46.6997 43.4449 46.6884C43.5879 46.474 43.7173 46.2123 43.7941 46.0026C44.0106 46.05 44.6467 46.1559 45.6765 46.4622L35.4266 62.7152C33.3889 65.9462 28.6105 65.9454 26.5735 62.7152L21.8729 55.2614C21.5622 54.7686 20.9108 54.6212 20.4181 54.9319C19.9255 55.2425 19.7778 55.8939 20.0886 56.3867L24.7893 63.8405C27.6547 68.3838 34.3453 68.3839 37.2106 63.8405L47.7089 47.1933C54.7102 50.1672 59.4708 57.1048 59.4708 64.9587V67.4188H59.4709Z" fill="black"/>
</svg>
